<?xml version="1.0" encoding="utf-8"?>
<!-- Generator: Adobe Illustrator 22.0.0, SVG Export Plug-In . SVG Version: 6.00 Build 0)  -->
<svg version="1.1" id="Capa_2" xmlns="http://www.w3.org/2000/svg" xmlns:xlink="http://www.w3.org/1999/xlink" x="0px" y="0px"
	 viewBox="0 0 598.3 507" style="enable-background:new 0 0 598.3 507;" xml:space="preserve">
<style type="text/css">
	.st0{fill:#FFFFFF;}
	.st1{fill:#FBFBFB;}
</style>
<path class="st0" d="M506.1,185.9c-57.7-135-143.3-173.5-172.6-183c-5.6-1.8-11.7,1.1-13.8,6.6L312.3,29l4.4,7.6
	c0.9,1.6-0.6,3.4-2.3,2.9C213,10.7,142.3,95,142.3,95c-27-1-52,16-52,16c21-84,98-111,98-111h-119v130c20.8-15,55.3-16,63-16
	c1.2,0,2.4,0.4,3.2,1.3c4.3,4.4-11.2,6.2-11.2,6.2c-71.5,15.5-88,73-88,73c37.7-54.8,81.8-67.4,90.5-69.4c1.3-0.3,2.8,0,3.8,0.9
	c1.8,1.6,1.4,4.1,0.9,5.8c-0.4,1.2-1.3,2.1-2.5,2.6C45.9,169.8,40.6,233,40.6,233C168,19.7,311.8,198.3,311.8,198.3
	c-88.3-121.7-186.9-89.7-186.9-89.7l-31.6,7.7c153.3-73.3,242,110,242,110c68.4,135.6,10,230.8-11.3,258.7
	c-3.2,4.2-1.4,10.4,3.6,12.2l23.6,8.3c0.8,0.3,1.7,0.4,2.6,0.4h58.4c14.2,0,39.5-14.1,39.5-14.1c10.2-7.3,8.6-0.3,8.6-0.3
	l-16.8,13.9l6.8,0.4c55.3-43.6,75.2-105.2,80.8-158.4C536.9,292.5,527.9,236.8,506.1,185.9z M498.4,303.9
	c-8.3,179.9-119.8,191.4-155.9,190.3c-2-0.1-2.4-2.9-0.4-3.4C508.6,447,460,250,460,250C415.2,88.2,317.5,53.7,283.7,46.5
	c-1.3-0.3-1.1-2.2,0.2-2.3c181.5-2.1,209.9,198.5,214,243.5C498.5,293.1,498.6,298.5,498.4,303.9z"/>
<path class="st0" d="M413.3,0h186v505L484,506c0,0,131.3-55.3,103.3-246.7C587.3,259.3,565.3,67.3,413.3,0z"/>
<g>
	<path class="st1" d="M260.6,245.3c-3.3,3.1-6.2,6.6-8.7,10.3c-2.4,3.7-4.3,7.7-5.6,11.8c-0.6,2.1-1,4.2-1.3,6.3
		c-0.2,2.1-0.3,4.3-0.2,6.4c0.2,4.3,1.1,8.5,2.6,12.5c1.4,4.1,3.4,7.8,6.1,11.1c1.3,1.6,2.8,3.1,4.5,4.4c1.7,1.3,3.5,2.4,5.4,3.3
		c1.9,0.9,4,1.6,6.1,2.1c2.1,0.5,4.3,0.9,6.5,1.1c4.4,0.4,8.9,0.2,13.4-0.6c-4.2,1.8-8.8,2.7-13.5,3c-4.7,0.2-9.5-0.3-14-2
		c-4.5-1.7-8.7-4.5-11.9-8.2c-3.2-3.7-5.6-8-7.2-12.5c-1.6-4.5-2.6-9.2-2.6-14.1c0-2.4,0.2-4.8,0.6-7.2c0.4-2.4,1.1-4.7,2-6.9
		c1.7-4.5,4.3-8.5,7.3-12C253.1,250.7,256.6,247.6,260.6,245.3z"/>
</g>
<g>
	<path class="st1" d="M282.8,214c5,2.7,9.5,6.3,13.7,10.1c4.2,3.9,8.1,8.1,11.5,12.7c3.5,4.5,6.6,9.4,9.3,14.5
		c2.7,5.1,5,10.3,7,15.7c1.9,5.4,3.4,11,4.6,16.6c1.1,5.6,2,11.3,2.3,17c0.9,11.4,0.4,22.9-1.3,34.1c0.5-11.3,0.3-22.7-1-33.9
		c-0.6-5.6-1.6-11.1-2.8-16.6c-1.3-5.5-2.8-10.9-4.7-16.2c-3.8-10.5-8.9-20.6-15.3-29.8c-3.2-4.6-6.8-9-10.7-13
		C291.6,221.1,287.5,217.3,282.8,214z"/>
</g>
<g>
	<path class="st1" d="M206,326.7c-2.7-3.8-4.9-7.9-7-12.1c-2.1-4.2-3.8-8.6-5.4-13c-2.9-8.9-4.9-18.3-5.2-27.9
		c-0.3-9.6,1.1-19.4,4.4-28.5c3.3-9.2,8.7-17.6,15.2-24.8c0.8-0.9,1.7-1.7,2.5-2.6c0.9-0.8,1.7-1.8,2.6-2.5l2.7-2.4l1.4-1.2l1.4-1.1
		l2.9-2.2c1-0.7,2-1.4,3-2.1c2-1.4,4.1-2.6,6.2-3.8c1.1-0.6,2.2-1.1,3.2-1.7l1.6-0.8c0.5-0.3,1.1-0.5,1.7-0.7c1.1-0.5,2.2-1,3.4-1.4
		l3.5-1.2c4.6-1.4,9.4-2.4,14.3-2.9c9.7-0.9,19.4,0.5,28.4,3.4c4.5,1.5,8.9,3.3,13,5.6c4.1,2.2,8.1,4.8,11.6,7.8
		c-2-1.2-4.1-2.2-6.2-3.2c-2.1-1-4.2-1.9-6.4-2.7c-4.3-1.6-8.7-2.9-13.1-3.8c-8.8-1.9-17.9-2.2-26.6-0.9c-4.4,0.7-8.6,1.8-12.8,3.3
		c-4.1,1.5-8.1,3.5-11.9,5.6c-1.9,1.2-3.8,2.3-5.5,3.6c-0.9,0.6-1.8,1.3-2.7,1.9l-2.6,2.1l-1.3,1l-1.2,1.1l-2.5,2.2
		c-0.8,0.7-1.6,1.6-2.4,2.3c-0.8,0.8-1.6,1.6-2.3,2.4c-2.9,3.3-5.7,6.7-8,10.4c-1.3,1.8-2.2,3.8-3.3,5.7c-0.5,1-0.9,2-1.4,3
		c-0.5,1-0.9,2-1.3,3l-1.2,3.1l-1,3.1c-0.4,1-0.6,2.1-0.9,3.2c-0.2,1.1-0.6,2.1-0.7,3.2l-0.6,3.3c-0.2,1.1-0.3,2.2-0.4,3.3
		c-0.2,1.1-0.2,2.2-0.3,3.3c-0.1,1.1-0.2,2.2-0.2,3.3c-0.2,4.5,0.1,9,0.5,13.4c0.4,4.5,1.2,9,2.2,13.4c0.9,4.5,2.2,8.9,3.6,13.2
		C202.4,318.1,204.1,322.4,206,326.7z"/>
</g>
<g>
	<path class="st1" d="M168,189.3c-2.4,3.6-4.6,7.3-6.6,11.1c-2.1,3.8-4,7.6-5.7,11.5c-3.5,7.8-6.5,15.7-8.8,23.9
		c-4.7,16.2-6.7,33-5.7,49.6l0.5,6.2c0.2,2.1,0.6,4.1,0.8,6.1c0.2,2.1,0.7,4.1,1.1,6.1c0.4,2,0.7,4.1,1.3,6l1.6,6l1.9,5.9
		c0.3,1,0.6,2,1,2.9l1.1,2.9c0.8,1.9,1.5,3.8,2.3,5.7l2.6,5.6c0.4,0.9,0.9,1.9,1.3,2.8l1.5,2.7l3,5.5c1.1,1.8,2.2,3.5,3.3,5.3
		l1.6,2.6l0.8,1.3l0.9,1.3l3.6,5.1l1.8,2.6l1.9,2.5l3.9,4.9c1.3,1.7,2.7,3.2,4,4.8l4.1,4.7c0.7,0.8,1.4,1.5,2.1,2.3l2.2,2.2l4.4,4.4
		c6.1,5.5,12.4,10.9,19.3,15.3c3.3,2.4,7,4.3,10.5,6.3c1.8,0.9,3.7,1.8,5.5,2.7c0.9,0.4,1.8,0.9,2.8,1.3l2.8,1.1l2.9,1.1
		c0.5,0.2,0.9,0.4,1.4,0.5l1.5,0.5l5.9,1.8l6,1.4c1,0.3,2,0.4,3,0.6l3,0.5c16.2,2.5,33.1,1.3,49.4-2.8c8.2-2,16.2-4.8,24-8.2
		c3.9-1.7,7.8-3.5,11.6-5.5c3.8-1.9,7.6-4.1,11.2-6.4c-6.4,5.8-13.6,10.7-21.2,15.1c-7.5,4.4-15.5,8-23.8,11
		c-16.6,5.9-34.6,8.6-52.6,6.9l-3.4-0.4c-1.1-0.1-2.2-0.2-3.3-0.5l-6.7-1.2c-4.4-1.1-8.8-2.2-13-3.8l-3.2-1.1
		c-1.1-0.4-2.1-0.9-3.1-1.3c-2.1-0.9-4.2-1.8-6.2-2.7c-4-2.1-8.1-4.1-11.8-6.6c-7.7-4.6-14.6-10.4-21.4-16.3
		c-1.6-1.5-3.2-3.1-4.8-4.7l-2.4-2.4c-0.8-0.8-1.6-1.6-2.3-2.4l-4.4-5c-1.5-1.7-3-3.3-4.3-5.1l-4.1-5.2l-2-2.6l-1.9-2.7l-3.8-5.5
		l-0.9-1.4l-0.9-1.4l-1.7-2.9c-1.1-1.9-2.3-3.8-3.4-5.7l-3.1-5.9l-1.5-3c-0.5-1-0.9-2-1.4-3.1l-2.7-6.1c-0.8-2.1-1.5-4.2-2.3-6.3
		l-1.1-3.2c-0.4-1.1-0.6-2.1-1-3.2c-0.6-2.2-1.3-4.3-1.8-6.5l-1.4-6.6c-1.7-8.8-2.8-17.7-2.7-26.7c0-17.9,3.5-35.6,9.9-51.9
		c3.3-8.2,7.1-16,11.6-23.5C157,202.8,162.1,195.6,168,189.3z"/>
</g>
<g>
	<path class="st1" d="M136,368l9.5,12.8c3.2,4.2,6.4,8.3,9.7,12.3c3.4,4,6.9,7.8,10.6,11.4c3.8,3.6,7.8,6.9,12.1,10.2
		c-5.2-1.4-10.2-4-14.6-7.1c-4.4-3.3-8.4-7.1-11.9-11.2c-3.5-4.2-6.6-8.7-9.2-13.4C139.6,378.2,137.4,373.3,136,368z"/>
</g>
<g>
	<path class="st1" d="M66.6,137.3c-2.7,3.5-5.2,7.1-7.6,10.8c-2.4,3.7-4.7,7.4-6.9,11.2c-4.4,7.6-8.5,15.4-12.1,23.3
		c-3.7,7.9-7,16-9.8,24.3c-2.8,8.3-5.3,16.6-7.3,25.1c-2,8.5-3.4,17-4.5,25.6c-1,8.6-1.5,17.3-1.4,25.9c0.1,8.7,0.6,17.3,1.7,25.9
		c1.1,8.6,2.6,17.1,4.7,25.5c2.1,8.4,4.7,16.7,7.7,24.8c3,8.1,6.6,16,10.3,23.9c2,3.9,3.9,7.8,6.1,11.5c1.1,1.9,2.1,3.8,3.2,5.7
		l3.4,5.6c4.6,7.4,9.4,14.7,14.6,21.7l3.9,5.3l4.1,5.2c2.7,3.5,5.5,6.8,8.3,10.2c1.4,1.7,2.8,3.3,4.3,5l4.3,4.9
		c2.9,3.3,6,6.4,8.9,9.7c12.1,12.8,25,24.8,38.1,36.6c-14.4-10.2-28.2-21.4-41.3-33.5c-3.2-3.1-6.4-6.1-9.6-9.3l-4.7-4.8
		c-1.6-1.6-3.1-3.2-4.6-4.8c-3-3.3-6.1-6.5-8.9-10l-4.3-5.1l-4.2-5.2c-11.2-13.9-20.9-29-29.3-44.9c-4.1-8-7.8-16.2-11-24.6
		c-3.2-8.4-5.9-17-8.1-25.7c-4.3-17.5-6.5-35.5-6.2-53.6c0.3-18,2.8-36,7.6-53.2c4.7-17.3,11.5-34,19.9-49.6
		c2.1-3.9,4.3-7.8,6.7-11.6c2.3-3.8,4.7-7.5,7.3-11.2C55.1,150.8,60.5,143.7,66.6,137.3z"/>
</g>
<polygon class="st0" points="67.3,505 67.3,468 110.6,505 "/>
</svg>
