<?xml version="1.0" encoding="utf-8"?>
<!-- Generator: Adobe Illustrator 22.0.0, SVG Export Plug-In . SVG Version: 6.00 Build 0)  -->
<svg version="1.1" id="Layer_1" xmlns="http://www.w3.org/2000/svg" xmlns:xlink="http://www.w3.org/1999/xlink" x="0px" y="0px"
	 viewBox="0 0 612 472.4" style="enable-background:new 0 0 612 472.4;" xml:space="preserve">
<style type="text/css">
	.st0{fill:#FFFFFF;}
</style>
<path class="st0" d="M475.7,63.4c-17.7,0-35.4,0-53.1,0c-4.1,0-3.5-0.1-4.1-3.3c-2-10.4-5.9-20-12.6-28.2
	C393.4,16.3,377.1,8.1,357,8C323.6,7.9,290.1,8,256.6,8c-29.8,0-54.8,20-61.4,48.9c-0.3,1.4-0.7,2.8-0.9,4.3
	c-0.3,1.5-0.9,2.5-2.6,2.2c-0.8-0.1-1.6,0-2.3,0c-34.7,0-69.4,0-104.1,0c-14.1,0-25.7,9.4-28.7,23.1c-0.5,2.2-0.6,4.4-0.6,6.7
	c0,9.5,0,19,0,28.5c0,3.1,0,3.1-3.2,3.1c-5.7,0.1-5.7,0.1-5.7-5.6c0-8.7-0.1-17.5,0-26.2c0.1-16.8,10.2-31,25.8-36.4
	c4.4-1.5,8.9-2,13.5-2c31.9,0,63.8,0,95.7,0c0.6,0,1.1,0,1.7,0c3.7,0.1,3.1-0.4,3.8-2.9c6.3-21.6,19.6-37.1,40.1-46.4
	c8.8-4,18-5.9,27.7-5.9c34,0.1,68.1,0.2,102.1,0c29.2-0.2,57.1,19.2,66.9,48.2c0.6,1.8,1.1,3.6,1.6,5.5c0.3,1.1,0.9,1.7,2.1,1.6
	c0.9-0.1,1.8,0,2.7,0c32.2,0,64.5-0.1,96.7,0.1c16.6,0.1,28.5,8,35.5,23.1c2.2,4.6,3.1,9.6,3.1,14.7c0,9.8,0,19.7,0,29.5
	c0,2.9,0,2.9-3,2.9c-5.7,0.1-5.7,0.1-5.7-5.6c0-8.7,0-17.5,0-26.2c0-17-12.8-29.7-29.8-29.7C510.2,63.4,493,63.4,475.7,63.4z"/>
<path class="st0" d="M306.6,356.8c-73.5,0-147.1-0.2-220.6,0.1C66.2,357,46.9,341.7,47,318c0-9,0-17.9,0-26.9c0-3,0-3,2.9-3
	c6-0.1,6-0.1,6,6c0,8.2,0.2,16.3,0,24.5c-0.4,15,11.9,29.4,28.9,29.6c0.9,0,1.8,0,2.7,0c146.2,0,292.3,0,438.5,0
	c7.3,0,14-1.5,19.8-6.1c7.4-5.8,11.3-13.5,11.4-22.9c0.1-9.3,0-18.6,0-27.9c0-3.2,0-3.3,3-3.2c1.9,0,4.2-0.8,5.5,0.5
	c1.1,1.2,0.4,3.4,0.4,5.2c-0.1,9.3,0.5,18.6-0.2,27.9c-1.5,20.1-17.8,35.1-38,35.1C454.1,356.8,380.3,356.8,306.6,356.8z"/>
<path class="st0" d="M439.6,194.5c0,73.6-59.6,132.9-133.6,132.9c-73-0.1-133.2-59.7-132.6-134.2c0.6-72.7,59.6-132,133.5-132
	C380.2,61.3,439.7,121,439.6,194.5z M306.4,323.4c71.3,0,129.2-57.7,129.3-128.8c0-71.5-57.6-129.4-129-129.5
	C235.6,65,177.5,122.9,177.5,194C177.4,265.5,235.1,323.4,306.4,323.4z"/>
<path class="st0" d="M487.1,48.4c-10.3,0-20.6,0-30.8,0c-3,0-3.1,0-3.1-3.2c0-1.5-0.1-2.9,0.1-4.4c0.3-2.6,1.8-4,4.4-4.3
	c0.8-0.1,1.6,0,2.3,0c18.1,0,36.2,0,54.3,0c0.7,0,1.3,0,2,0c2.9,0.2,4.4,1.8,4.8,4.6c0.8,7.1,0.8,7.1-6.4,7.1
	C505.4,48.4,496.3,48.4,487.1,48.4z"/>
<path class="st0" d="M131.7,47.1c-10.3,0-20.6,0-30.9,0c-2.8,0-2.8,0-2.8-2.7c0-1.5-0.1-2.9,0-4.4c0.2-3.1,1.7-4.6,4.9-4.6
	c10.4,0,20.8,0,31.2,0c8.7,0,17.5,0,26.2,0c4,0,5.4,1.4,5.5,5.4c0.1,1.6,0,3.1,0,4.7c0,1.1-0.5,1.6-1.6,1.6c-2.1,0-4.3,0-6.4,0
	C149.1,47.1,140.4,47.1,131.7,47.1z"/>
<path class="st0" d="M612.5,607.6c0,1.7,0.1,3.4,0,5.1c-0.5,13.8-13.6,23.8-28.1,20.7c-10.7-2.2-14.8-16.5-7.6-25.6
	c2.4-3.1,5.5-5.1,9.1-6.6c7.4-3,15.1-3.4,22.9-3.6c2.6-0.1,3.9,1,3.8,3.7C612.4,603.4,612.5,605.5,612.5,607.6z"/>
<path class="st0" d="M392.4,109.9c-3,1.6-112.7,40.4-115.7,40.9c0.4-2.4,0.7-4.7,1.1-6.9c2.8-18,5.7-36,8.5-54c0.6-4,1.2-8,1.9-11.9
	c0.5-2.8,0.5-2.8,3.3-3.2c9.8-1.3,19.6-1.4,29.4-0.1c26,3.2,48.7,13.7,67.9,31.5c1,0.9,1.9,1.9,2.9,2.8
	C391.9,109.1,392,109.4,392.4,109.9z"/>
<path class="st0" d="M283.7,241c-3.3,1.2-6.4,2.4-9.4,3.5c-19.7,7.2-39.5,14.5-59.2,21.7c-1.3,0.5-3.1,0.5-2.8,2.9
	C202,256.6,195,242.5,190.5,227c-6.5-22.7-5.3-48.7,0-64.1C192.8,163.9,280.9,237.8,283.7,241z"/>
<path class="st0" d="M335.5,237.9c0.2,2.1-0.5,4-0.8,5.9c-3.9,22.4-7.9,44.7-11.9,67c-0.5,3-0.5,3.1-3.5,3.3
	c-35.7,3.2-67-6.8-93.8-30.6c-1-0.9-1.9-1.8-2.9-2.8c-0.3-0.3-0.6-0.7-0.8-1C223.6,278.3,331.9,238.4,335.5,237.9z"/>
<path class="st0" d="M337.5,310.2c7.1-39.8,14.1-79.4,21.1-118.8c1.2-0.6,1.7,0.2,2.2,0.7c18.4,15.5,36.8,30.9,55.2,46.4
	c2,1.7,2,1.7,0.8,4.5c-10.7,23.9-27.4,42.5-50,55.7c-8,4.6-16.4,8.2-25.2,10.9C340.5,310,339.4,310.5,337.5,310.2z"/>
<path class="st0" d="M422.6,225.2c-30.7-25.8-61.3-51.5-91.7-77.1c0.3-1.4,1.4-1.3,2.1-1.5c22.3-7.9,44.7-15.9,67-23.8
	c2.9-1,2.9-1,4.6,1.4c10,14.1,16.7,29.6,20.1,46.5c3.4,17.4,3.1,34.7-1,51.9c-0.1,0.5-0.3,1.1-0.4,1.6
	C423.2,224.4,423.1,224.6,422.6,225.2z"/>
<path class="st0" d="M273.5,78.8c-6.2,39.4-12.4,78.6-18.6,117.6c-0.8,0.5-1.3,0.1-1.7-0.3c-18.6-15.6-37.2-31.2-55.7-46.8
	c-2.1-1.7-2.1-1.8-1-4.2c15.1-32.5,39.6-54.4,73.6-65.7c0.7-0.2,1.5-0.4,2.3-0.6C272.5,78.7,272.7,78.8,273.5,78.8z"/>
</svg>
